<?xml version="1.0" encoding="utf-8"?><svg viewBox="0 0 682 682" xmlns="http://www.w3.org/2000/svg" xmlns:xlink="http://www.w3.org/1999/xlink"><style>:root>svg{display:none}:root>svg:target{display:block}</style><svg viewBox="0 0 391 250" id="3ek" xmlns="http://www.w3.org/2000/svg"><path fill="#fd7532" d="M265.273 95.903c.008.04-.42.096-1.198.361-.773.266-1.913.783-3.089 1.863-1.171 1.071-2.353 2.728-3.083 4.943a14.302 14.302 0 00-.285 7.905 13.578 13.578 0 001.933 4.313 16.188 16.188 0 003.559 3.823 15.724 15.724 0 005.034 2.609c1.888.578 3.963.807 6.071.58 2.108-.218 4.238-.904 6.214-2.015a19.33 19.33 0 005.349-4.491 17.413 17.413 0 003.354-6.54c.667-2.452.843-5.102.612-7.784a31.88 31.88 0 00-1.799-8.057c-.997-2.618-2.489-5.126-4.315-7.432-1.83-2.306-4.002-4.429-6.484-6.202a24.266 24.266 0 00-3.963-2.313c-.702-.319-1.411-.6-2.153-.831a36.326 36.326 0 00-2.281-.651c-3.077-.773-6.31-1.153-9.581-1.028-3.271.115-6.571.738-9.772 1.818-6.414 2.169-12.355 6.178-17.421 11.253-5.13 4.973-8.565 11.738-10.239 19.03-1.69 7.314-1.758 15.135-.624 22.88 1.139 7.755 3.542 15.461 7.044 22.767 3.502 7.309 8.125 14.21 13.673 20.418 11.106 12.43 25.338 21.419 40.283 26.216a88.324 88.324 0 0011.313 2.835c1.893.335 3.801.646 5.672.814 1.892.172 3.782.253 5.665.253 7.535-.01 14.902-1.254 21.8-3.34 6.901-2.094 13.354-5.059 19.09-8.757 5.733-3.698 10.749-8.152 14.679-13.192 3.936-5.031 6.745-10.647 8.267-16.371.77-2.86 1.23-5.739 1.419-8.576.093-1.418.125-2.826.094-4.217a31.317 31.317 0 00-.334-4.084c-.804-5.348-2.915-10.21-5.73-14.186-2.819-3.98-6.39-7.081-10.225-9.005-3.833-1.941-7.901-2.645-11.564-2.399-3.656.27-6.887 1.626-9.208 3.533-2.343 1.904-3.763 4.314-4.387 6.543a12.695 12.695 0 00-.248 5.839c.301 1.575.77 2.722 1.102 3.478.337.756.538 1.134.507 1.152-.023.013-.278-.333-.675-1.069a14.106 14.106 0 01-1.294-3.486 12.835 12.835 0 01.085-6.055c.594-2.342 2.033-4.906 4.457-6.947 2.404-2.045 5.762-3.519 9.596-3.854 3.808-.311 8.065.373 12.082 2.354 4.02 1.961 7.76 5.146 10.716 9.242a34.34 34.34 0 016.063 14.666 32.41 32.41 0 01.379 4.245c.043 1.429.02 2.876-.067 4.338a45.503 45.503 0 01-1.406 8.851c-1.534 5.918-4.407 11.738-8.435 16.937-4.018 5.211-9.149 9.803-15 13.611-5.856 3.81-12.433 6.858-19.471 9.019-7.037 2.152-14.556 3.446-22.288 3.475a64.313 64.313 0 01-5.824-.247c-1.969-.175-3.891-.486-5.829-.824a89.977 89.977 0 01-11.545-2.873c-15.253-4.869-29.766-14.021-41.096-26.702-11.339-12.649-18.816-28.24-21.126-44.141-1.149-7.932-1.071-15.963.695-23.535.888-3.777 2.205-7.429 4.006-10.792a37.632 37.632 0 014.813-7.012 47.09 47.09 0 011.931-2.021c5.231-5.205 11.391-9.344 18.097-11.583 3.344-1.116 6.804-1.752 10.229-1.857 3.426-.115 6.805.299 10.007 1.12.8.208 1.592.433 2.369.689.792.251 1.569.563 2.315.909a25.805 25.805 0 014.189 2.476c2.6 1.878 4.846 4.102 6.739 6.519 1.892 2.419 3.437 5.047 4.474 7.83a32.993 32.993 0 011.821 8.426c.22 2.807.017 5.606-.716 8.214a18.535 18.535 0 01-3.64 6.954 20.351 20.351 0 01-5.714 4.706c-2.111 1.159-4.39 1.869-6.642 2.076a16.2 16.2 0 01-6.455-.693c-2-.634-3.785-1.631-5.291-2.827-3-2.413-4.946-5.565-5.645-8.654a14.751 14.751 0 01.463-8.248c.814-2.285 2.093-3.972 3.351-5.041 1.264-1.077 2.47-1.552 3.279-1.765.817-.217 1.252-.208 1.254-.187z"/><path fill="#fd7532" d="M184.579 148.606c.004-.006.341.19.969.616a28.256 28.256 0 012.669 2.063 27.004 27.004 0 013.762 4.019 26.87 26.87 0 013.673 6.6c1.03 2.668 1.755 5.823 1.893 9.334.138 3.506-.312 7.368-1.589 11.305-1.279 3.928-3.388 7.948-6.534 11.536-3.128 3.582-7.343 6.7-12.388 8.583a32.322 32.322 0 01-8.018 1.874 38.064 38.064 0 01-8.574-.074 35.242 35.242 0 01-8.738-2.234 35.615 35.615 0 01-8.193-4.611c-5.129-3.834-9.361-9.127-12.266-15.215-2.911-6.09-4.546-12.99-4.577-20.116-.035-7.112 1.59-14.497 5.178-21.126a40.78 40.78 0 016.738-9.145 41.963 41.963 0 014.301-3.827 55.301 55.301 0 014.688-3.25c3.256-2.016 6.812-3.688 10.589-4.818a38.733 38.733 0 0111.749-1.648c3.99.053 7.964.744 11.756 1.94 3.796 1.196 7.413 2.887 10.809 4.917 6.799 4.075 12.582 9.321 17.581 14.996a93.786 93.786 0 013.597 4.359l3.389 4.392 6.674 8.666c4.437 5.695 8.931 11.175 13.643 16.236 4.706 5.062 9.633 9.696 14.77 13.737 5.135 4.042 10.485 7.476 15.949 10.198a77.266 77.266 0 0016.591 6.058 77.004 77.004 0 008.277 1.499c2.759.347 5.489.578 8.163.702 5.351.245 10.501.04 15.366-.575 9.737-1.219 18.28-4.16 25.157-7.915a64.863 64.863 0 0015.989-12.24 69.297 69.297 0 007.98-10.096c1.605-2.481 2.329-3.86 2.356-3.844.012.006-.663 1.407-2.137 3.979-1.49 2.558-3.786 6.307-7.419 10.659-3.63 4.33-8.661 9.271-15.56 13.606a67.816 67.816 0 01-11.656 5.83c-4.317 1.67-9.057 3.002-14.127 3.889-5.069.888-10.466 1.321-16.079 1.252a99.43 99.43 0 01-8.57-.479 70.378 70.378 0 01-8.872-1.461c-5.952-1.377-11.927-3.629-17.614-6.745-5.695-3.106-11.081-7.056-16.112-11.561-5.039-4.504-9.732-9.554-14.267-14.881-4.538-5.327-8.921-10.942-13.373-16.644-2.228-2.85-4.469-5.726-6.76-8.594a334.777 334.777 0 00-3.479-4.29 78.023 78.023 0 00-3.646-4.124c-5.063-5.328-10.967-10.036-17.582-13.425-6.596-3.386-13.783-5.265-20.749-4.977a35.513 35.513 0 00-10.111 1.887c-3.232 1.098-6.291 2.635-9.141 4.482a49.926 49.926 0 00-4.117 2.983 35.728 35.728 0 00-3.618 3.347 34.966 34.966 0 00-5.585 7.871c-2.958 5.67-4.278 12.001-4.244 18.154.063 12.333 5.439 24.016 13.877 30.853a30.677 30.677 0 0014.142 6.477 34.17 34.17 0 007.499.462 28.478 28.478 0 007.051-1.226c4.476-1.375 8.365-3.869 11.387-6.911 3.037-3.04 5.229-6.594 6.658-10.162a30.508 30.508 0 002.194-10.501c.087-3.331-.401-6.391-1.233-9.019a25.537 25.537 0 00-3.178-6.614 25.7 25.7 0 00-3.49-4.152c-1.063-1.021-1.949-1.719-2.553-2.176s-.928-.67-.919-.684z"/><path fill="#fd7532" d="M67.425 128.386s.328-.233 1.005-.634c.678-.393 1.71-.959 3.158-1.473a16.579 16.579 0 015.577-.955c2.248-.002 4.857.476 7.542 1.653 2.683 1.17 5.431 3.016 7.965 5.525a33.277 33.277 0 016.655 9.444c3.739 7.467 4.042 17.972-.623 27.501-2.323 4.745-5.897 9.173-10.501 12.673-4.593 3.503-10.215 6.073-16.356 7.192-6.118 1.083-12.696 1.039-19.147-.614-6.445-1.632-12.668-4.91-17.927-9.541-5.274-4.619-9.589-10.534-12.648-17.169-3.062-6.637-4.879-14.007-5.235-21.586-.336-7.573.718-15.347 3.298-22.736 2.569-7.389 6.68-14.336 11.997-20.313 5.313-5.989 11.653-10.868 18.426-14.653 6.78-3.794 13.992-6.512 21.263-8.365a113.684 113.684 0 0121.82-3.291c7.217-.363 14.323.031 21.149 1.128 6.828 1.094 13.367 2.878 19.512 5.156 6.148 2.275 11.903 5.034 17.257 8.052 10.713 6.054 19.834 13.054 27.727 19.858 7.887 6.83 14.551 13.519 20.22 19.544 5.665 6.035 10.331 11.421 14.087 15.869a540.713 540.713 0 018.511 10.36l2.908 3.659-2.96-3.617a480.443 480.443 0 00-8.665-10.224 398.118 398.118 0 00-14.328-15.618c-5.755-5.926-12.5-12.495-20.43-19.202-7.935-6.688-17.07-13.54-27.697-19.515-5.309-2.982-10.992-5.73-17.053-8.04-6.057-2.309-12.497-4.17-19.243-5.363a98.272 98.272 0 00-20.966-1.419A106.832 106.832 0 0072 74.828c-7.233 1.845-14.395 4.584-21.083 8.412-6.684 3.82-12.884 8.749-18.02 14.735-5.141 5.975-9.05 12.859-11.467 20.116-2.426 7.255-3.385 14.858-3.02 22.237.385 7.38 2.19 14.546 5.19 20.978 2.995 6.433 7.194 12.14 12.279 16.592 5.073 4.464 11.039 7.623 17.228 9.227 6.189 1.623 12.553 1.72 18.481.734 5.919-1.018 11.37-3.43 15.849-6.757 4.49-3.323 8.007-7.557 10.327-12.123a32.892 32.892 0 003.58-14.07c.198-4.64-.88-8.978-2.567-12.707a32.769 32.769 0 00-6.398-9.406c-2.459-2.515-5.143-4.385-7.777-5.581-2.634-1.206-5.21-1.719-7.438-1.748a16.402 16.402 0 00-5.555.875 17.963 17.963 0 00-3.167 1.432c-.679.39-1.011.62-1.015.614zM312.75 78.654c-.011.033-.383-.094-1.123-.262a12.204 12.204 0 00-3.327-.305 11.478 11.478 0 00-5.136 1.531c-1.852 1.052-3.721 2.783-5.132 5.174-1.405 2.376-2.362 5.441-2.203 8.802a14.746 14.746 0 001.164 5.076c.707 1.673 1.764 3.263 3.115 4.686 1.344 1.429 2.941 2.719 4.782 3.703a16.927 16.927 0 006.112 1.91c4.389.513 9.232-.77 13.135-3.763a19.648 19.648 0 004.978-5.592c1.314-2.206 2.216-4.719 2.629-7.369.754-5.351.456-11.146-1.311-16.711-1.745-5.567-4.985-10.865-9.426-15.224-4.429-4.374-10.007-7.83-16.193-10.079-6.187-2.254-12.983-3.318-19.876-3.049a55.195 55.195 0 00-20.428 4.804c-6.543 2.943-12.596 7.242-17.832 12.503-5.24 5.26-9.688 11.461-13.199 18.241a80.42 80.42 0 00-7.462 21.278c-1.441 7.293-1.823 14.693-.982 21.829.886 7.147 2.6 14.081 5.046 20.569a84.424 84.424 0 009.378 18.007c7.497 10.948 17.231 19.448 27.491 25.241 10.271 5.825 21.041 8.987 31.012 10.03 9.995 1.062 19.176.019 26.872-2.058a71.678 71.678 0 0018.768-8.067c4.807-2.942 8.206-5.738 10.455-7.674 2.242-1.952 3.354-3.053 3.403-3.005.034.033-.999 1.214-3.178 3.256a71.063 71.063 0 01-10.336 7.976 70.877 70.877 0 01-18.864 8.417c-7.773 2.19-17.083 3.336-27.241 2.333-10.133-.982-21.099-4.126-31.574-9.997-10.461-5.839-20.408-14.447-28.079-25.576a85.713 85.713 0 01-9.603-18.316c-2.507-6.608-4.263-13.647-5.178-20.942-.873-7.325-.491-14.897.978-22.345a81.779 81.779 0 017.608-21.726c3.586-6.921 8.132-13.26 13.509-18.647 5.367-5.386 11.591-9.802 18.336-12.822 6.744-3.024 13.944-4.645 21.041-4.906s14.094.853 20.467 3.199c6.372 2.339 12.125 5.927 16.698 10.481 4.585 4.538 7.929 10.062 9.714 15.856 1.804 5.802 2.079 11.769 1.261 17.33-.454 2.802-1.43 5.468-2.841 7.8a20.857 20.857 0 01-5.326 5.9c-4.164 3.142-9.314 4.462-13.975 3.875a17.915 17.915 0 01-6.464-2.087c-1.938-1.06-3.602-2.436-4.99-3.946-1.4-1.506-2.506-3.211-3.23-4.988a15.543 15.543 0 01-1.161-5.38 16.554 16.554 0 012.442-9.172c1.513-2.463 3.494-4.222 5.448-5.271 1.959-1.063 3.862-1.415 5.367-1.432a11.124 11.124 0 013.382.475c.736.228 1.089.407 1.08.428z"/><path fill="#fd7532" d="M51.951 122.252c0 .001-.029-.466.076-1.369.108-.898.374-2.244 1.113-3.864.734-1.615 1.958-3.488 3.799-5.333 1.836-1.844 4.281-3.663 7.323-5.165a31.63 31.63 0 0110.823-3.101 28.226 28.226 0 016.498.1c2.216.259 4.538.71 6.858 1.413 4.65 1.397 9.388 3.798 13.673 7.318a40.69 40.69 0 0110.793 13.731 40.479 40.479 0 013.099 8.979c.696 3.167 1.003 6.534.915 9.891-.112 6.689-1.239 13.728-3.948 20.521-2.682 6.784-7.018 13.267-12.892 18.456-5.849 5.202-13.177 9.074-21.19 11.03-8.004 1.973-16.681 2.046-25.057.021-8.378-2.021-16.416-6.128-23.094-12.123-6.559-5.953-12.063-13.373-15.689-21.78-3.646-8.39-5.397-17.715-5.018-27.033.358-9.327 2.8-18.38 6.793-26.463 3.985-8.099 9.535-15.222 15.943-21.093 6.354-5.948 13.495-10.812 21.004-14.533 7.51-3.729 15.38-6.332 23.258-7.89a96.233 96.233 0 0123.382-1.715 97.65 97.65 0 0121.859 3.588c6.879 1.931 13.339 4.401 19.344 7.18a147.616 147.616 0 0116.68 9.095c10.238 6.46 18.729 13.396 25.787 19.854 7.057 6.472 12.7 12.487 17.168 17.509a303.919 303.919 0 019.972 11.839c2.209 2.763 3.34 4.236 3.333 4.242-.013.011-1.17-1.443-3.452-4.144a271.41 271.41 0 00-10.314-11.515c-4.618-4.863-10.446-10.658-17.656-16.862-7.213-6.188-15.825-12.803-26.061-18.929-10.223-6.118-22.128-11.706-35.595-15.426a105.018 105.018 0 00-21.227-3.659c-7.4-.498-15.089-.223-22.836 1.059-7.741 1.281-15.547 3.575-23.013 7.082-7.463 3.494-14.573 8.211-20.835 14.079-6.322 5.801-11.707 12.853-15.454 20.86-3.757 7.986-5.858 16.884-5.905 25.893a60.148 60.148 0 005.603 25.746c3.667 7.902 8.994 14.819 15.278 20.411 1.534 1.385 3.201 2.63 4.914 3.793a49.698 49.698 0 005.313 3.132 49.93 49.93 0 0011.383 4.156 50.053 50.053 0 0023.268-.13c7.42-1.818 14.19-5.354 19.637-10.093 5.467-4.729 9.574-10.641 12.211-16.928 2.657-6.293 3.891-12.917 4.162-19.314a38.29 38.29 0 00-3.268-17.76 38.765 38.765 0 00-9.823-13.307 38.017 38.017 0 00-12.869-7.437 38.267 38.267 0 00-6.601-1.593 27.3 27.3 0 00-6.252-.302 30.702 30.702 0 00-10.647 2.687c-3.03 1.378-5.49 3.097-7.352 4.863-1.866 1.766-3.125 3.583-3.891 5.165-.772 1.585-1.068 2.916-1.197 3.808-.127.895-.11 1.363-.125 1.362z"/><path fill="#fd7532" d="M98.711 91.03c-.008.011 1.18.63 3.205 2.159 1.997 1.538 4.872 4.051 7.47 8.142a31.4 31.4 0 013.379 7.279 32.985 32.985 0 011.524 9.435 34.574 34.574 0 01-1.584 10.884 35.248 35.248 0 01-5.703 10.955 36.13 36.13 0 01-4.548 4.896 41.862 41.862 0 01-5.588 4.185 37.1 37.1 0 01-13.829 5.196c-5.08.819-10.505.568-15.816-.769-5.313-1.332-10.513-3.731-15.23-7.056a49.336 49.336 0 01-12.359-12.57 48.154 48.154 0 01-4.396-8.014c-1.217-2.837-2.143-5.807-2.869-8.85-1.437-6.086-1.831-12.605-.605-18.985 1.196-6.379 4.04-12.492 8.075-17.738 4.031-5.266 9.04-9.583 14.381-13.124a81.422 81.422 0 018.261-4.779 67.614 67.614 0 018.643-3.67c5.875-2.027 11.923-3.172 17.886-3.57 5.968-.401 11.846-.072 17.497.769 11.32 1.695 21.675 5.352 30.872 9.622 9.208 4.297 17.316 9.217 24.437 14.075 7.119 4.87 13.249 9.706 18.468 14.133a249.57 249.57 0 0112.967 11.825 259.366 259.366 0 017.757 7.923 182.24 182.24 0 012.619 2.842l-2.66-2.805a238.235 238.235 0 00-7.871-7.799 251.343 251.343 0 00-13.14-11.594c-5.277-4.335-11.46-9.065-18.607-13.831-7.146-4.76-15.263-9.566-24.415-13.811-4.575-2.119-9.409-4.093-14.503-5.789-5.094-1.691-10.45-3.106-16.044-4.03-5.588-.922-11.415-1.347-17.345-1.013-5.924.331-11.944 1.432-17.781 3.447a65.496 65.496 0 00-8.579 3.668 77.537 77.537 0 00-8.177 4.811c-5.27 3.566-10.166 7.922-14.043 13.166-3.883 5.228-6.549 11.246-7.632 17.466-1.108 6.224-.672 12.556.763 18.498.725 2.972 1.648 5.879 2.842 8.624a46.91 46.91 0 004.309 7.773A48.506 48.506 0 0052.789 145.2c4.585 3.229 9.624 5.566 14.763 6.885 5.138 1.322 10.377 1.606 15.299.864a36.214 36.214 0 0013.463-4.887 41.14 41.14 0 005.503-4.008 35.517 35.517 0 004.501-4.708 34.605 34.605 0 005.741-10.629 34.051 34.051 0 001.733-10.672 32.649 32.649 0 00-1.351-9.337 31.011 31.011 0 00-3.233-7.268c-2.514-4.105-5.346-6.654-7.322-8.212-2.004-1.551-3.188-2.181-3.175-2.199zm252.24 89.311c-.01-.016-1.678 1.616-5.192 3.922-3.507 2.294-8.86 5.277-15.999 7.788a77.876 77.876 0 01-11.986 3.161 72.046 72.046 0 01-14.296 1.131 68.29 68.29 0 01-15.849-2.21c-5.409-1.409-10.854-3.559-16.083-6.412-5.231-2.846-10.003-6.259-14.232-9.94-4.237-3.683-7.965-7.638-11.179-11.685s-5.912-8.193-8.078-12.278c-2.171-4.084-3.808-8.108-4.953-11.896-1.149-3.788-1.801-7.336-2.08-10.474-.283-3.139-.191-5.865.085-8.061.277-2.198.735-3.868 1.209-4.965.477-1.099.964-1.629 1.387-1.583.428.047.771.667 1.078 1.766.311 1.102.59 2.686.959 4.677.736 3.978 1.879 9.612 4.441 16.219 2.54 6.598 6.511 14.165 12.223 21.736 2.851 3.782 6.127 7.562 9.837 11.165s7.852 7.008 12.462 9.987c4.604 2.978 9.439 5.37 14.342 7.108a64.881 64.881 0 0014.657 3.365c4.802.535 9.443.508 13.764.106a71.605 71.605 0 0011.912-2.144c7.189-1.933 12.694-4.585 16.28-6.722 3.6-2.144 5.286-3.778 5.291-3.761z"/><path fill="#fd7532" d="M342.861 182.101c-.006-.01-1.345.777-3.856 2.045-2.514 1.254-6.218 2.99-11.059 4.488-4.828 1.488-10.843 2.698-17.647 2.63a55.895 55.895 0 01-10.621-1.123 58.801 58.801 0 01-11.019-3.405c-7.325-3.066-13.67-7.408-18.733-12.073-5.076-4.669-8.894-9.669-11.471-14.231-2.589-4.563-3.912-8.702-4.318-11.647-.209-1.474-.2-2.645-.076-3.442.127-.799.364-1.224.647-1.26.585-.067 1.239 1.381 2.411 3.819 1.171 2.44 2.931 5.905 5.614 9.906a80.429 80.429 0 0010.844 12.984c4.59 4.44 10.216 8.798 16.827 12.17a58.389 58.389 0 0010.055 4.023 54.026 54.026 0 009.966 1.943c6.483.642 12.443-.016 17.3-1.126a59.966 59.966 0 0011.226-3.771c2.561-1.156 3.907-1.938 3.911-1.931z"/><path fill="#fd7532" d="M300.263 148.993c.019.013-.443.463-1.074 1.488a8.855 8.855 0 00-.899 2.017 7.707 7.707 0 00-.293 2.957c.103 1.113.48 2.323 1.184 3.474.701 1.15 1.724 2.24 3.025 3.104a10.977 10.977 0 004.608 1.733 10.87 10.87 0 005.384-.647c1.778-.69 3.494-1.863 4.88-3.403 1.387-1.54 2.422-3.488 2.934-5.65 1.054-4.323-.04-9.439-3.139-13.411-1.539-1.991-3.562-3.691-5.915-4.938-2.35-1.247-5.039-2.069-7.806-2.365a20.495 20.495 0 00-8.406.875 20.742 20.742 0 00-7.617 4.44 21.52 21.52 0 00-5.204 7.293 21.992 21.992 0 00-1.35 4.229c-.267 1.428-.392 2.923-.445 4.371-.093 2.913.238 5.788 1.014 8.467a25.195 25.195 0 003.462 7.329c3.001 4.365 7.048 7.498 11.141 9.751 4.113 2.259 8.345 3.634 12.293 4.417 3.955.786 7.636.994 10.857.888a44.51 44.51 0 008.22-1.033 38.726 38.726 0 005.046-1.492c1.13-.426 1.704-.695 1.71-.684.001.005-.563.294-1.671.781a42.654 42.654 0 01-4.979 1.808 44.658 44.658 0 01-8.262 1.594 45.716 45.716 0 01-11.195-.288c-4.117-.628-8.608-1.871-12.984-4.221a31.401 31.401 0 01-6.268-4.431 27.953 27.953 0 01-5.145-6.299 28.075 28.075 0 01-3.183-7.869c-.679-2.81-.943-5.762-.854-8.743-.021-5.972 2.279-12.244 6.759-16.93 2.234-2.339 4.973-4.185 7.965-5.327a21.162 21.162 0 019.317-1.313 23.887 23.887 0 018.768 2.479c2.685 1.365 5.042 3.291 6.821 5.591a18.615 18.615 0 013.549 7.652c.56 2.705.466 5.465-.24 7.971-.701 2.509-2.031 4.742-3.73 6.443-1.701 1.702-3.706 2.909-5.793 3.583-2.088.673-4.237.75-6.148.362a12.052 12.052 0 01-4.947-2.236c-1.35-1.033-2.37-2.28-3.037-3.56-.67-1.281-.984-2.593-1.02-3.768a8.102 8.102 0 01.489-3.051 9.273 9.273 0 011.022-2.003c.687-1.001 1.163-1.432 1.158-1.434zM168.497 70.75c-.004.01.998-.073 2.844.337a13.63 13.63 0 013.272 1.225c1.229.646 2.56 1.58 3.838 2.872 2.549 2.572 4.89 6.595 5.749 11.784.809 5.207-.479 11.442-4.031 17.075a29.202 29.202 0 01-7.047 7.729 25.465 25.465 0 01-4.869 2.907c-.888.398-1.812.749-2.768 1.041-.927.281-1.866.526-2.829.736-3.844.843-8.013 1.086-12.22.444a31.35 31.35 0 01-12.208-4.599c-3.792-2.42-7.13-5.726-9.711-9.619-2.589-3.895-4.421-8.353-5.422-13.061a32.396 32.396 0 01.292-14.624c1.213-4.823 3.53-9.38 6.657-13.305 6.262-7.862 15.325-12.882 24.586-14.075 4.59-.649 9.223-.638 13.659.113a41.917 41.917 0 0112.503 4.215c3.837 2.003 7.274 4.522 10.284 7.294 3.013 2.776 5.606 5.803 7.852 8.895 2.248 3.095 4.145 6.26 5.801 9.378a97.88 97.88 0 014.266 9.186c2.418 5.975 4.069 11.562 5.262 16.514a124.925 124.925 0 012.376 12.824c.464 3.545.674 6.312.789 8.186.113 1.874.137 2.859.127 2.86-.017.001-.078-.984-.289-2.847a100.386 100.386 0 00-1.282-8.091 125.35 125.35 0 00-3.184-12.531 129.767 129.767 0 00-6.075-15.931c-2.636-5.72-5.967-11.786-10.319-17.699-2.175-2.955-4.602-5.871-7.36-8.613-2.759-2.737-5.854-5.309-9.366-7.435-3.505-2.129-7.439-3.796-11.672-4.694-4.23-.91-8.722-1.034-13.208-.395-4.465.586-8.87 2.165-12.81 4.613a34.321 34.321 0 00-10.089 9.613c-2.683 3.873-4.512 8.213-5.376 12.632a31.288 31.288 0 00.212 13.118c.995 4.238 2.727 8.22 5.083 11.635 2.351 3.419 5.313 6.277 8.626 8.388a28.915 28.915 0 0010.633 4.124c3.679.642 7.377.557 10.876-.063 7.02-1.003 12.545-5.352 16.078-10.291 3.552-4.959 5.126-10.615 4.699-15.469a22.03 22.03 0 00-1.685-6.619c-.838-1.946-1.901-3.597-3.053-4.914a14.928 14.928 0 00-3.546-3 13.023 13.023 0 00-3.144-1.371c-1.804-.499-2.813-.454-2.806-.49zm186.688 50.908c-.001.004-.667-.279-1.912-.664a28.425 28.425 0 00-5.374-1.103c-2.283-.235-5.069-.212-7.874.628a14.392 14.392 0 00-4.035 1.919 12.624 12.624 0 00-3.25 3.256c-1.773 2.581-2.396 5.585-2.235 8.153.076 1.29.344 2.481.729 3.528a11.547 11.547 0 001.44 2.72c1.102 1.539 2.39 2.538 3.34 3.304.952.76 1.566 1.316 1.461 1.796-.053.233-.28.424-.686.545s-.987.169-1.724.074a8.39 8.39 0 01-2.604-.805 10.497 10.497 0 01-2.978-2.199 12.073 12.073 0 01-2.43-3.807 13.858 13.858 0 01-.988-5.009 15.25 15.25 0 01.94-5.459 15.339 15.339 0 013.031-5.017 15.017 15.017 0 014.605-3.437 16.453 16.453 0 014.979-1.473c3.25-.423 6.11.028 8.402.573 2.3.559 4.071 1.241 5.288 1.711l1.877.766z"/><path fill="#fd7532" d="M358.631 125.967c.01.01-1.258-.797-3.554-1.245a18.624 18.624 0 00-4.014-.332 20.956 20.956 0 00-4.68.633 17.973 17.973 0 00-4.003 1.527c-1.087.579-1.916 1.166-2.641 1.689-.724.522-1.359 1-1.971 1.326-.609.323-1.197.484-1.703.298-.497-.182-.862-.713-.9-1.569-.041-.845.274-2.036 1.145-3.233.857-1.198 2.288-2.336 4.026-3.028 1.738-.705 3.738-.976 5.727-.87 1.994.104 3.798.545 5.353 1.075a26.104 26.104 0 013.934 1.73 33.349 33.349 0 012.426 1.443l.854.556z"/><path fill="#fd7532" d="M365.262 133.69c.004.01-.892-.902-2.684-1.789a15.566 15.566 0 00-3.236-1.166 17.162 17.162 0 00-4-.473 18.903 18.903 0 00-3.724.376c-1.081.217-1.982.478-2.752.696-.771.214-1.427.391-2.013.45-.58.06-1.096.005-1.443-.298-.342-.296-.468-.838-.223-1.536.241-.688.875-1.524 1.9-2.198 1.017-.679 2.41-1.171 3.954-1.314 1.543-.15 3.228.05 4.853.558 1.628.506 3.039 1.257 4.212 2.038 1.176.783 2.119 1.6 2.867 2.306.749.707 1.305 1.31 1.692 1.718.381.412.596.634.599.632z"/><path fill="#fd7532" d="M368.466 143.964c0 .008-.386-1.04-1.455-2.438a13.177 13.177 0 00-2.092-2.174 12.311 12.311 0 00-2.975-1.815c-2.205-.94-4.265-1.15-5.833-1.567-.784-.199-1.443-.437-1.916-.738-.472-.3-.757-.666-.773-1.069-.04-.797 1.05-1.592 2.997-1.691.967-.047 2.142.087 3.394.505a11.211 11.211 0 013.717 2.12c1.156.989 2.017 2.133 2.645 3.206.633 1.077 1.048 2.09 1.364 2.935.313.847.528 1.533.682 2.003.151.469.242.725.244.724zm-159.051 27.408s-.005-.253.035-.734a7.802 7.802 0 01.455-2.063c.326-.848.949-1.913 2.167-2.562 1.194-.657 2.935-.713 4.479.094 1.553.779 2.844 2.383 3.396 4.339.275.969.419 2.037.287 3.135a6.994 6.994 0 01-1.184 3.156c-1.31 1.933-3.658 3.226-6.163 3.296a7.9 7.9 0 01-3.677-.777c-1.158-.542-2.16-1.389-3.014-2.321-1.74-1.863-2.846-4.243-2.984-6.638-.155-2.395.545-4.703 1.678-6.595a12.478 12.478 0 014.441-4.385 11.995 11.995 0 015.22-1.592c1.681-.108 3.198.18 4.441.616a12.54 12.54 0 012.985 1.539 15.294 15.294 0 012.172 1.834c-.004.004-.186-.172-.556-.479a14.216 14.216 0 00-1.71-1.212 12.358 12.358 0 00-3.01-1.311 11.203 11.203 0 00-4.269-.354c-1.578.171-3.267.707-4.871 1.653-1.599.943-3.149 2.267-4.352 4.006-1.197 1.722-2.013 3.935-1.854 6.257a8.796 8.796 0 00.924 3.373c.532 1.064 1.283 2.031 2.167 2.87.886.845 1.855 1.55 2.928 1.985 1.064.443 2.2.635 3.3.575 2.209-.108 4.221-1.287 5.334-2.938a6.25 6.25 0 001.039-2.69c.134-.937.042-1.88-.171-2.763-.423-1.764-1.482-3.227-2.816-4.001-1.324-.795-2.869-.854-3.993-.333-1.146.512-1.819 1.475-2.186 2.282a7.265 7.265 0 00-.563 2.006c-.062.478-.067.73-.074.73zm19.206 16.785c.001 0-.125-.167-.319-.517-.183-.348-.46-.894-.5-1.67a2.77 2.77 0 01.237-1.263c.193-.438.523-.863.964-1.208.883-.687 2.199-1.076 3.615-.875.704.1 1.432.354 2.089.79a5.37 5.37 0 011.671 1.776c.427.721.743 1.568.828 2.483a5.576 5.576 0 01-.459 2.755c-.78 1.766-2.408 3.174-4.36 3.803a6.757 6.757 0 01-3.092.259c-1.047-.155-2.06-.607-2.908-1.233-1.713-1.21-3.091-2.87-3.668-4.776-.594-1.897-.397-3.91.276-5.609a9.598 9.598 0 013.118-4.115c1.308-.994 2.781-1.569 4.161-1.761a8.018 8.018 0 013.695.342 9.204 9.204 0 012.462 1.29c.615.45 1.042.857 1.326 1.135.283.281.421.438.421.438l-.445-.413a10.771 10.771 0 00-1.382-1.044 8.945 8.945 0 00-2.476-1.098 7.87 7.87 0 00-3.517-.131c-1.286.238-2.628.83-3.844 1.769-1.211.936-2.33 2.202-3.076 3.779-.745 1.56-1.052 3.505-.47 5.34a7.221 7.221 0 001.406 2.525c.638.752 1.422 1.39 2.282 1.921a6.203 6.203 0 002.725.966 6.485 6.485 0 002.756-.334c1.738-.595 3.149-1.89 3.811-3.403a4.939 4.939 0 00.413-2.336 5.386 5.386 0 00-.653-2.173c-.691-1.32-1.928-2.166-3.184-2.406-1.257-.257-2.489.016-3.338.591-.867.573-1.259 1.48-1.255 2.215-.007.745.233 1.305.398 1.659.175.358.295.529.29.533zm18.246 12.447c.007 0-.089-.14-.127-.449-.049-.299.059-.81.524-1.203.45-.388 1.166-.679 2.024-.67.838.016 1.873.329 2.596 1.198.716.861 1.023 2.124.818 3.414-.112.634-.354 1.284-.75 1.862s-.948 1.077-1.595 1.427c-1.299.706-2.929.831-4.431.385a6.015 6.015 0 01-3.626-2.987c-.736-1.455-1.003-3.083-.71-4.581s1.143-2.799 2.218-3.706c1.077-.92 2.365-1.453 3.6-1.673a9.173 9.173 0 013.463.073 10.45 10.45 0 012.67.966c.738.39 1.331.796 1.791 1.156.916.724 1.348 1.204 1.353 1.199-.008.011-.46-.457-1.416-1.113-.953-.64-2.453-1.479-4.472-1.811a9.609 9.609 0 00-3.297.032c-1.16.221-2.383.659-3.457 1.462-1.073.787-1.974 2.001-2.253 3.454-.289 1.444.049 3.038.838 4.356a5.88 5.88 0 003.466 2.589c1.369.377 2.823.224 3.943-.389 1.134-.605 1.854-1.689 2.087-2.815.224-1.107.012-2.264-.568-3.038-.58-.792-1.491-1.149-2.279-1.217-.795-.063-1.499.166-1.948.509-.463.343-.596.824-.563 1.12.023.304.114.449.103.451zM151.16 48.895c-21.008 6.5-49.809 6.525-62.015-10.75-6.612-9.337-3.933-26.477 10.541-24.652 13.035 1.883 15.13 18.352 22.643 26.214 7.513 7.862 17.007 12.294 27.935 9.46l.897-.272z"/><path fill="#fd7532" d="M151.048 48.701c-10.495 3.227-21.685 4.698-32.645 3.706-10.343-.936-21.021-4.483-27.847-12.697-5.165-6.215-6.978-17.199-.59-23.316 3.469-3.322 8.956-3.48 13.219-1.777 4.437 1.772 7.383 5.791 9.707 9.779 1.93 3.312 3.521 6.807 5.454 10.115 2.025 3.466 4.606 6.328 7.703 8.879 7.097 5.846 16.282 8.41 25.224 5.7.259-.079-.022-.449-.224-.388-5.731 1.737-11.77 1.392-17.279-.94-5.248-2.221-10.209-6.188-13.484-10.861-4.992-7.119-7.252-16.897-15.094-21.663-3.545-2.153-8.408-2.828-12.3-1.238-3.547 1.451-5.793 4.585-6.79 8.206-1.056 3.838-.677 8.049.666 11.763 1.491 4.122 4.554 7.558 7.925 10.273 7.39 5.953 17.153 8.223 26.443 8.753 10.138.577 20.452-.93 30.139-3.907.258-.08-.024-.45-.225-.388z"/><path fill="#fd7532" d="M148.328 49.706c-11.176 1.494-28.133-7.707-28.119-20.499.048-6.038 6.08-12.505 12.362-8.141 5.246 3.757 1.254 11.202 1.842 16.445.563 7.177 5.426 12.149 12.445 12.328l1.47-.133z"/><path fill="#fd7532" d="M148.216 49.512c-5.047.635-10.221-.736-14.736-2.941-4.685-2.289-8.984-5.836-11.399-10.523-2.564-4.977-2.258-11.551 2.63-15.007 2.827-1.998 6.638-1.333 8.903 1.204 1.982 2.216 1.56 5.623 1.177 8.316-.376 2.66-.831 5.209-.486 7.899a14.318 14.318 0 002.7 6.716c2.672 3.594 7.092 5.113 11.432 4.724.26-.023-.018-.406-.223-.388-5.206.468-9.958-2.002-12.266-6.765-1.217-2.513-1.546-5.412-1.276-8.163.262-2.67.937-5.29.847-7.988-.162-4.875-5.031-8.467-9.719-6.659-4.749 1.833-6.384 7.551-5.514 12.123 1.137 5.975 5.903 10.638 10.918 13.659 5.052 3.045 11.312 4.925 17.234 4.181.262-.034-.018-.414-.223-.388z"/><path fill="#fd7532" d="M146.959 49.527c-4.802-.049-11.721-5.054-10.742-10.614.375-2.655 3.874-5.195 6.356-3.133s.2 5.032.305 7.669c-.145 2.406 1.196 5.953 4.081 6.078z"/><path fill="#fd7532" d="M146.944 49.477c-3.533-.101-6.976-2.207-9.106-4.952-2.328-3.004-2.406-8.121 1.903-9.347 1.373-.39 2.719.304 3.507 1.428.697.993.42 2.353.173 3.439-.365 1.599-.738 3.062-.538 4.713.269 2.243 1.661 4.613 4.092 4.82.073.007.022-.095-.031-.1-2.525-.214-3.718-2.719-3.988-4.964-.253-2.109.696-4.015.831-6.08.087-1.347-.755-2.736-2.043-3.209-1.532-.563-3 0-4.166 1.057-2.667 2.42-1.384 6.395.576 8.778 2.088 2.537 5.509 4.421 8.82 4.517.074.002.023-.097-.03-.1zm14.308 64.426c19.078-2.699 28.204-25.743 19.312-38.656-4.103-5.96-10.303-11.406-19.789-8.665-6.244 1.804-10.392 6.41-9.011 14.67.687 4.121 5.454 8.483 10.415 7.773 4.303-.614 5.999-3.564 7.134-7.191 14.037 5.582 10.896 28.293-7.408 31.968z"/><path fill="#fd7532" d="M161.364 114.098c9.409-1.391 17.028-7.922 20.682-16.588 1.69-4.008 2.441-8.436 2.051-12.77-.381-4.234-2.06-7.964-4.64-11.299-2.983-3.854-6.976-6.942-11.898-7.657-4.708-.684-10.284.961-13.526 4.525-3.071 3.376-3.663 9.233-1.671 13.274 2.221 4.508 7.805 7.024 12.478 4.882 2.099-.963 3.346-2.995 4.173-5.057.151-.375.266-1.406.706-1.218.441.187.868.408 1.288.637a13.008 13.008 0 012.639 1.94c2.808 2.637 4.139 6.442 4.196 10.235.137 8.989-6.721 16.319-15.161 18.41-.294.072-.591.133-.888.194-.262.055.018.431.224.388 7.969-1.652 14.525-7.533 15.993-15.692 1.247-6.931-2.001-13.931-8.648-16.637-.088-.035-.221-.056-.259.062-.799 2.502-1.934 4.906-4.31 6.247-2.978 1.68-6.574.906-9.188-1.055-4.672-3.502-5.09-10.883-1.854-15.495 3.121-4.447 9.75-6.071 14.84-5.094 5.339 1.026 9.577 5.339 12.338 9.801 4.214 6.814 3.356 15.691.023 22.662-3.765 7.875-11.136 13.634-19.812 14.915-.261.038.019.417.224.388z"/><path fill="#fd7532" d="M158.794 112.453c8.615-1.333 16.229-5.286 16.798-15.128.417-4.084-2.548-8.188-7.057-6.607-5.01 1.755-4.217 6.54-3.91 10.854.306 4.311-1.989 10.433-5.831 10.882zM128.87 95.607c3.152 6.836 11.547 12.742 19.052 8.365 3.528-1.821 5.753-6.23 4.393-10.256-1.101-3.556-6.286-7.189-9.757-3.933-3.94 3.516-.827 9.393 4.196 8.954-4.564 5.941-13.056 3.639-16.869-1.73l-1.015-1.399z"/><path fill="#fd7532" d="M128.685 95.649c2.252 4.758 6.608 8.849 11.888 9.847 5.176.98 10.787-2.109 12.131-7.302 1.166-4.51-2.279-9.721-7.075-9.877-2.229-.072-4.169 1.722-4.855 3.736-.615 1.805.08 3.781 1.324 5.132 1.201 1.307 2.983 1.86 4.718 1.751l-.251-.343c-2.551 3.206-6.46 4.105-10.3 2.906-3.229-1.01-5.332-3.339-7.246-5.978-.158-.217-.483-.076-.3.178 2.088 2.878 4.36 5.177 7.85 6.268 3.841 1.199 7.862.076 10.374-3.082.112-.139-.111-.353-.251-.344-2.306.145-4.41-.974-5.346-3.131-.96-2.214.097-4.504 1.9-5.886 2.235-1.713 5.183-.454 6.982 1.25 1.974 1.869 2.623 4.597 2.055 7.21-1.147 5.281-7.073 8.017-12.052 7.075-4.97-.938-9.078-5.055-11.177-9.489-.102-.214-.503-.202-.369.082zm19.513-45.131c-7.26 2.528-16.144 12.482-13.584 20.54 1.456 4.422 6.727 8.213 11.239 4.993 4.665-3.384.369-8.564-1.128-12.274-1.952-4.843 1.443-11.645 5.539-14.611l-2.066 1.352z"/><path fill="#fd7532" d="M150.167 49.399c-3.688 3.382-6.359 9.895-3.044 14.002 1.533 1.899 5.768 2.211 6.765-.87 1.165-2.926-2.751-4.85-4.266-6.71-1.521-2.019-1.463-4.581.544-6.422zm67.384 77.682c.137-10.748-4.149-26.192-13.655-31.895-5.585-3.619-12.426-.627-10.942 6.514 1.501 7.227 10.785 5.652 16.037 8.963 5.252 3.313 8.638 10.333 8.56 16.417zm-6.798-38.225c-4.176-8.468-5.952-21.658-.85-30.115 3.071-5.328 8.309-8.661 14.323-6.845 5.056 1.782 8.831 6.756 6.607 12.075-2.756 6.591-9.52 6.697-14.13 1.413-6.792 1.997-8.805 16.934-5.951 23.472z"/><path fill="#fd7532" d="M215.55 105.604c-3.219-8.512-3.063-22.079 4.669-26.426 4.115-2.315 8.665.615 8.216 5.433-.142 4.487-5.216 5.648-8.322 8.013-3.106 2.362-5.048 8.839-4.564 12.98zm-10.956-30.533c-7.455-15.468-17.867-24.166-29.278-27.1-11.975-2.912-24.227-5.696-27.917-21.621 4.44 12.247 19.35 3.748 27.806 3.414 15.247-.042 9.627 14.865 19.48 21.25-6.449-5.956 2.21-15.661 9.092-12.786-10.994 2.39-2.86 28.663.478 36.158l.338.684zm31.505 5.099c11.712-19.345 34.493-33.968 53.842-30.219 10.825 2.393 18.988 15.042 8.048 23.948-10.399 8.319-19.395-1.578-29.678-4.557-9.698-2.439-23.278-.247-31.546 9.789l-.666 1.039z"/><path fill="#fd7532" d="M236.289 80.316c6.33-10.389 15.439-19.191 26.178-24.943 5.044-2.702 10.521-4.647 16.195-5.458 5.352-.763 11.239-.575 16.08 2.04 4.476 2.418 8.163 6.999 8.213 12.249.058 5.979-5.465 11.163-10.978 12.466-5.795 1.368-11.515-2.088-16.5-4.554-2.472-1.222-5.034-2.465-7.732-3.099-2.379-.559-4.833-.787-7.274-.786-4.767 0-9.524 1.05-13.854 3.035-4.133 1.893-8.234 4.89-10.707 8.756-.122.193.26.481.38.293 2.95-4.613 8.045-7.85 13.104-9.714 5.111-1.884 10.729-2.399 16.111-1.632 10.392 1.482 20.274 12.824 30.975 6.292 4.347-2.654 7.494-7.355 6.789-12.57-.589-4.363-3.748-8.172-7.386-10.453-4.36-2.734-9.458-3.3-14.509-3.007-5.348.31-10.573 1.815-15.463 3.958-12.406 5.433-22.99 15.322-30.001 26.831-.118.195.266.483.38.293z"/><path fill="#fd7532" d="M227.428 103.071c1.278-13.23 12.561-22.941 23.776-24.325 8.597-1.061 13.763 5.094 12.203 12.333-2.142 9.945-12.499 5.977-18.227 3.945-6.879-2.551-15.201 1.167-17.751 8.046zm102.748-4.084c-7.477 14.314-28.161 13.724-33.943-.11-5.713-13.668 3.596-23.211 11.875-22.608 3.923.286 7.999 2.079 9.245 7.541.679 2.975-.9 7.252-3.43 8.939-3.562 2.377-8.747 1.925-11.885-2.243-.722 16.158 17.812 21.881 26.926 9.659l1.214-1.178zM277.471 81.51c16.56 11.996 12.727 34.616-.804 39.333-7.13 2.486-16.03-2.693-14.92-10.032s7.883-6.277 13.252-9.768c3.814-2.479 10.039-13.773 1.723-20.169l.75.637zm90.06 65.495c.606 15.223-9.449 32.193-26.432 31.174-6.788-.295-14.602-5.542-11.272-13.67 3.882-9.48 13.852-5.036 20.617-5.304 7.872-.877 13.418-5.084 17.073-12.57l.014.371z"/><path fill="#fd7532" d="M366.518 144.966c-4.516 7.139-16.081 16.079-24.265 9.443-3.22-2.512-3.589-9.777.888-11.875 4.236-2.088 8.013 2.322 11.683 4.096 3.919 2.004 8.21 1.717 11.45-1.292l.244-.372zM48.865 184.149c18.066 5.683 36.465-.409 41.433-14.287 2.379-6.575-1.961-13.123-8.719-14.054-8.204-1.114-10.411 5.774-12.284 12.969-2.112 8.105-8.499 15.714-20.43 15.372z"/><path fill="#fd7532" d="M23.656 159.79c6.4 14.066 22.392 24.778 33.999 18.047 6.959-4.036 7.565-14.978-1.159-19.111-5.815-2.756-11.896 2.633-17.101 4.519-5.914 2.156-11.253.688-15.738-3.455z"/><path fill="#fd7532" d="M19.144 141.369c1.827 12.768 13.263 21.193 22.916 16.49 4.477-2.098 6.118-9.124 2.122-13.045-3.987-3.682-8.214-1.354-12.479.016-4.506 1.378-10.158 1.063-12.558-3.461zm159.973 53.412c13.91-6.68 21.523-26.832 9.687-40.48-4.779-6.587-15.602-9.308-19.802-.907-4.072 8.142 2.838 14.57 7.031 20.615 4.217 6.61 8.421 15.788 3.084 20.772z"/><path fill="#fd7532" d="M179.273 194.958c9.034-4.408 15.104-13.979 15.571-23.977.241-5.162-1.261-10.264-4.156-14.529-2.644-3.893-6.097-7.125-10.793-8.208-3.925-.905-7.899.314-10.275 3.634-3.168 4.428-2.213 9.651.393 14.04 1.36 2.29 3.058 4.369 4.651 6.496 1.704 2.273 3.13 4.738 4.354 7.299 2.182 4.564 4.069 10.884-.09 14.922-.157.154.215.452.379.294 3.977-3.862 2.493-9.752.555-14.25-1.134-2.634-2.563-5.223-4.24-7.55-1.752-2.43-3.676-4.731-5.24-7.292-1.674-2.738-2.752-5.815-2.266-9.05.426-2.828 2.072-5.569 4.48-7.126 4.345-2.807 10.134-.817 13.755 2.234 1.616 1.362 2.978 3.181 4.158 4.918 1.273 1.874 2.23 3.946 2.907 6.106 1.293 4.133 1.286 8.581.337 12.782-1.817 8.045-7.364 15.278-14.791 18.903-.214.105.118.448.311.354z"/><path fill="#fd7532" d="M135.71 168.27c1.078 12.946 10.655 26.757 24.259 27.836 19.036 1.512 19.402-23.359 4.111-24.445-8.48-.229-12.631 8.972-6.747 14.95-8.977 1.487-19.994-6.697-21.624-18.342z"/><path fill="#fd7532" d="M135.494 168.21c.906 10.232 6.64 20.52 15.814 25.507 6.864 3.731 17.288 4.209 21.947-3.159 3.26-5.156 2.279-12.503-2.396-16.46-2.763-2.339-6.734-3.203-10.204-2.201-4.073 1.176-6.704 5.187-6.219 9.372.24 2.076 1.323 3.942 2.748 5.43l.037-.283c-10.568 1.633-19.846-8.322-21.296-18.088-.03-.203-.469-.377-.431-.118 1.494 10.069 11.067 20.276 21.95 18.594.146-.022.11-.205.037-.283-3.617-3.782-3.559-9.666.739-12.911 3.559-2.688 8.716-2.078 12.134.513 5.439 4.125 5.676 12.71 1.368 17.694-5.406 6.256-15.434 4.614-21.7.765-8.213-5.046-13.264-14.825-14.099-24.255-.017-.206-.454-.382-.43-.118zm77.668-17.23c-14.008-20.333-50.954-38.497-70.592-10.475-4.147 5.918-4.949 14.758-2.01 21.925-1.492-12.771 11.594-6.672 20.437-11.541 9.948-5.478 6.236-22.838 21.617-19.495-5.661-.34-8.533 7.681-7.767 12.733 10.041-17.341 31.503-1.138 38.316 6.853z"/><path fill="#fd7532" d="M213.346 150.939c-5.334-7.694-12.747-13.938-20.914-18.448-8.267-4.566-17.874-7.399-27.371-6.307-7.656.88-14.501 4.692-19.655 10.36-3.106 3.415-5.388 7.222-6.335 11.772-.974 4.683-.49 9.672 1.283 14.103.055.137.452.343.422.07-.229-2.116-.229-4.438 1.117-6.209 1.054-1.387 2.837-1.944 4.471-2.276 4.096-.831 8.316-.559 12.332-1.875 3.71-1.216 6.239-3.842 8.059-7.213 1.694-3.137 2.719-6.623 4.704-9.603.997-1.497 2.305-2.737 3.963-3.466 2.249-.988 4.862-.757 7.198-.267l-.068-.387c-6.159-.223-8.605 7.932-7.921 12.871.017.131.292.397.405.207 2.079-3.527 5.067-6.332 9.124-7.307 3.805-.915 7.841 0 11.403 1.412 6.605 2.616 12.83 7.31 17.45 12.691.172.201.504.063.298-.178-4.828-5.624-11.316-10.408-18.238-13.077-3.521-1.357-7.407-2.057-11.138-1.236-4.105.903-7.2 3.873-9.279 7.401l.405.207c-.656-4.74 1.637-12.813 7.613-12.595.278.01.113-.349-.068-.387-3.581-.751-7.292-.627-10.059 2.029-2.441 2.344-3.591 5.834-4.94 8.848-1.565 3.499-3.513 6.882-7 8.756-3.866 2.079-8.44 2.003-12.685 2.507-2.082.247-4.307.659-5.914 2.108-1.894 1.707-1.917 4.588-1.664 6.919l.422.069c-2.391-5.978-2.345-12.858.27-18.757 2.254-5.088 6.794-9.554 11.407-12.546 8.465-5.491 18.91-5.783 28.391-3.104 12.689 3.586 24.633 12.155 32.142 22.988.128.188.547.178.367-.08zM366.94 175.91c-7.457 15.5-25.401 29.698-41.032 34.271-17.84 5.791-29.241 2.362-49.462-.538-7.84-1.124-15.912 3.41-18.793 8.569 15.379-8.954 26.339 6.878 39.486 10.872 5.728 2.031 12.639 1.122 18.164-1.921 7.173-4.238 6.463-14.248 15.439-15.735-5.459 4.736-.296 15.091 8.533 14.473-7.819-12.101 14.647-20.434 27.664-49.992z"/><path fill="#fd7532" d="M370.21 165.38c-1.273 17.011-12.993 31.264-18.549 37.022 7.492-5.222 10.29-1.189 13.473-2.024 3.933-1.031 3.068-8.028 2.912-11.975 1.24 2.774 2.914 3.898 5.818 4.288-3.586-4.94-2.832-18.703-3.629-26.522l-.026-.789zm-36.753 16.181c-8.058 3.742-22.788 4.506-28.757-3.778-2.285-3.149-1.661-8.574 2.61-9.824 4.864-1.394 8.745 5.652 11.744 8.653 3.502 3.583 9.701 6.589 14.403 4.949z"/><path fill="#fd7532" d="M307.906 183.176c-8.353-.748-21.067-7.923-20.719-17.297.078-4.083 3.501-8.539 7.918-6.075s3.43 7.784 3.831 11.848c.391 3.824 3.339 9.55 8.969 11.524zm-82.281-62.612c-1.24-11.741 5.299-23.588 15.879-23.192 4.965.186 7.394 4.866 6.238 8.993-1.276 4.129-7.769 3.788-11.105 4.401-5.488.819-10.374 4.005-11.011 9.798zM122.071 76.357c-2.858 17.235-21.955 34.662-37.581 25.118-6.946-4.242-9.317-14.911-2.753-20.253 7.151-4.802 17.215.476 14.168 9.07 9.565 4.325 23.05-2.889 26.03-13.173l.137-.761z"/><path fill="#fd7532" d="M121.609 75.976c-1.751 8.096-11.266 12.448-18.846 8.909-3.431-1.784-5.06-6.519-1.072-8.838s6.575 2.378 9.757 3.933c4.15 1.754 8.642-.355 10.161-4.004z"/></svg><svg viewBox="0 0 76 54" id="arrow_slider-gray" xmlns="http://www.w3.org/2000/svg"><path fill="#c2c2c2" d="M51.164.811c-1.035-1.083-2.758-1.083-3.829 0-1.035 1.046-1.035 2.786 0 3.83L66.751 24.26H2.681C1.187 24.262 0 25.462 0 26.97c0 1.51 1.187 2.748 2.68 2.748h64.071L47.335 49.3c-1.035 1.082-1.035 2.826 0 3.87 1.071 1.081 2.797 1.081 3.83 0l24.012-24.264a2.683 2.683 0 000-3.83z"/></svg><svg viewBox="0 0 490.688 490.688" id="arrows_down" xmlns="http://www.w3.org/2000/svg"><path d="M472.328 216.529L245.213 443.665 18.098 216.529c-4.237-4.093-10.99-3.975-15.083.262-3.992 4.134-3.992 10.687 0 14.82l234.667 234.667c4.165 4.164 10.917 4.164 15.083 0l234.667-234.667c4.093-4.237 3.975-10.99-.262-15.083a10.666 10.666 0 00-14.821 0l-.021.001z" data-original="#607D8B" fill="#fff"/><path d="M472.328 24.529L245.213 251.665 18.098 24.529A10.668 10.668 0 003.015 39.612l234.667 234.667c4.165 4.164 10.917 4.164 15.083 0L487.432 39.612c4.237-4.093 4.354-10.845.262-15.083-4.093-4.237-10.845-4.354-15.083-.262-.089.086-.176.173-.262.262h-.021z" data-original="#607D8B" fill="#fff"/><path d="M245.213 469.415a10.663 10.663 0 01-7.552-3.115L2.994 231.633c-4.093-4.237-3.975-10.99.262-15.083 4.134-3.992 10.687-3.992 14.82 0l227.136 227.115 227.115-227.136c4.237-4.093 10.99-3.975 15.083.262a10.666 10.666 0 010 14.821L252.744 466.279a10.674 10.674 0 01-7.531 3.136z" data-original="#000000" class="cactive-path" data-old_color="#000000" fill="#fff"/><path d="M245.213 277.415a10.663 10.663 0 01-7.552-3.115L2.994 39.633A10.668 10.668 0 0118.077 24.55l227.136 227.115L472.328 24.529c4.093-4.237 10.845-4.354 15.083-.262s4.354 10.845.262 15.083c-.086.089-.173.176-.262.262L252.744 274.279a10.674 10.674 0 01-7.531 3.136z" data-original="#000000" class="cactive-path" data-old_color="#000000" fill="#fff"/></svg><svg viewBox="0 0 76 54" id="arrows_slider" xmlns="http://www.w3.org/2000/svg"><path fill="#fff" d="M24.836.81c1.035-1.082 2.758-1.082 3.829 0 1.035 1.047 1.035 2.788 0 3.83L9.249 24.26h64.07c1.494.002 2.681 1.202 2.681 2.71 0 1.509-1.187 2.747-2.68 2.747H9.248L28.665 49.3c1.035 1.082 1.035 2.825 0 3.87-1.071 1.082-2.797 1.082-3.83 0L.824 28.905a2.683 2.683 0 010-3.83z"/></svg><svg viewBox="0 0 512 512" id="facebook" xmlns="http://www.w3.org/2000/svg"><path d="M437 0H75C33.648 0 0 33.648 0 75v362c0 41.352 33.648 75 75 75h151V331h-60v-90h60v-61c0-49.629 40.371-90 90-90h91v90h-91v61h91l-15 90h-76v181h121c41.352 0 75-33.648 75-75V75c0-41.352-33.648-75-75-75zm0 0"/></svg><svg viewBox="0 0 512 512" id="google" xmlns="http://www.w3.org/2000/svg"><path d="M512 256c0-16.084-1.509-32.183-4.497-47.813-1.348-7.075-7.544-12.188-14.736-12.188H257c-8.291 0-15 6.709-15 15v90c0 8.291 6.709 15 15 15h120.967c-7.537 15.258-17.924 28.497-30.121 39.635l84.78 84.78C481.407 393.939 512 328.539 512 256zM256 120c29.429 0 57.422 9.346 80.947 27.041 5.947 4.468 14.341 3.926 19.614-1.392l64.014-64.014c2.974-2.974 4.57-7.061 4.38-11.265s-2.124-8.13-5.347-10.84C373.803 21.138 315.692 0 256 0 168.151 0 90.542 44.654 44.663 112.452l88.048 88.048C153.717 153.184 200.979 120 256 120zm0 392c57.263 0 109.993-19.2 152.602-51.187l-86.371-86.371C302.489 385.558 279.925 392 256 392c-55.021 0-102.283-33.184-123.289-80.5l-88.048 88.048C90.542 467.346 168.151 512 256 512zM122.184 277.605C121.035 270.526 120 263.397 120 256s1.035-14.526 2.184-21.605L28.06 140.271C10.252 175.051 0 214.316 0 256s10.252 80.949 28.061 115.728z"/></svg><svg viewBox="0 0 239 239" id="play" xmlns="http://www.w3.org/2000/svg"><path fill="#fff" d="M119.5 0C185.498 0 239 53.502 239 119.5c0 65.998-53.502 119.5-119.5 119.5C53.502 239 0 185.498 0 119.5 0 53.502 53.502 0 119.5 0z"/><path d="M161.094 118.281l-60.806-41.9a2.108 2.108 0 00-2.166-.13A2.092 2.092 0 0097 78.105v83.802a2.097 2.097 0 003.288 1.725l60.806-41.902a2.091 2.091 0 00.906-1.724 2.1 2.1 0 00-.906-1.725z"/></svg><svg viewBox="0 0 80 63" id="resolution" xmlns="http://www.w3.org/2000/svg"><path fill="#fff" d="M80 7.56v40.32a2.51 2.51 0 01-2.5 2.52H70a2.487 2.487 0 01-1.775-.756l-5-5.04 3.525-3.554 4.275 4.31H75V10.08h-3.975l-4.25 4.309a2.484 2.484 0 01-1.775.73h-5v17.64h-5V7.56a2.51 2.51 0 00-2.5-2.52h-45A2.51 2.51 0 005 7.56v40.32a2.51 2.51 0 002.5 2.52H10v5.04H7.5c-4.142 0-7.5-3.385-7.5-7.56V7.56C0 3.385 3.358 0 7.5 0h45C56.642 0 60 3.385 60 7.56v2.52h3.975l4.25-4.31A2.488 2.488 0 0170 5.04h7.5A2.51 2.51 0 0180 7.56zM45 25.2H15a2.51 2.51 0 01-2.5-2.52V12.6a2.51 2.51 0 012.5-2.52h30a2.51 2.51 0 012.5 2.52v10.08A2.51 2.51 0 0145 25.2zM32.5 50.4H35v5.04h-2.5V63h-5v-7.56H20a2.51 2.51 0 01-2.5-2.52V37.8h5v12.6h5V37.8h5zm15.85-2.344l8.6 10.861-3.9 3.15L44.8 51.66l-2.3 2.293V63h-5V37.8h5v9.047l8.225-8.316 3.55 3.578z"/></svg><svg viewBox="0 0 25 23" id="shop_cart" xmlns="http://www.w3.org/2000/svg"><path fill="#fff" d="M0 .937C0 .422.416.001.925.001h3.344c.416 0 .785.28.893.687L8.938 14.53H19.23l3.421-7.968H11.25a.934.934 0 01-.924-.938c0-.515.416-.937.924-.937h12.82c.31 0 .602.156.771.422.17.265.2.593.078.89l-4.223 9.844a.926.926 0 01-.847.563H8.244a.927.927 0 01-.894-.688L3.575 1.874H.925A.934.934 0 010 .937zm5.27 19.938c0-1.172.94-2.125 2.096-2.125 1.156 0 2.096.953 2.096 2.125 0 1.172-.94 2.125-2.096 2.125-1.156 0-2.096-.953-2.096-2.125zm13.114.14c-.077-1.156.786-2.187 1.942-2.265 1.155-.078 2.157.813 2.234 1.97.03.577-.139 1.123-.509 1.546-.37.437-.878.687-1.433.734h-.154c-1.094 0-2.003-.875-2.08-1.984z"/></svg><svg viewBox="0 0 64 64" id="speed" xmlns="http://www.w3.org/2000/svg"><path fill="#fff" d="M24.5 32c0-2.293 2.44-11.084 4.055-16.65C20.827 16.949 15 23.808 15 32c0 9.374 7.626 17 17 17 9.352 0 16.963-7.59 17-16.934-.019-5.403-2.516-10.353-6.86-13.587a2.5 2.5 0 112.987-4.01 22.185 22.185 0 016.454 7.618 22.067 22.067 0 012.416 9.86c0 .018.003.035.003.053v.125l-.002.042C53.908 44.221 44.075 54 32 54c-12.13 0-22-9.869-22-22s9.87-22 22-22c.078 0 .156.004.233.012a2.4 2.4 0 01.226.032l.092.019c.044.01.087.021.13.033.03.009.061.017.091.027.047.015.093.033.139.05.028.011.055.021.082.033.061.027.12.055.18.086l.075.045c.04.022.079.045.117.07.025.016.05.034.074.051a1.938 1.938 0 01.175.135c.04.035.08.07.118.106.015.014.03.028.044.044.053.052.103.107.15.164l.02.026c.04.048.077.099.113.15l.043.068c.025.039.05.078.073.119l.046.085a2.608 2.608 0 01.096.209c.015.036.028.074.04.112.013.034.026.067.036.101l.002.007C35.593 15.794 39.5 29.1 39.5 32c0 4.136-3.364 7.5-7.5 7.5-4.135 0-7.5-3.364-7.5-7.5zm5 .001A2.503 2.503 0 0032 34.5c1.379 0 2.5-1.121 2.5-2.5-.01-1-1.096-5.362-2.502-10.454C30.584 26.662 29.51 30.983 29.5 32zM64 32c0 6.316-1.875 12.46-5.422 17.765a2.5 2.5 0 01-4.156-2.78C57.417 42.505 59 37.324 59 32 59 17.112 46.888 5 32 5S5 17.112 5 32s12.112 27 27 27c4.938 0 9.768-1.345 13.967-3.888a2.5 2.5 0 112.59 4.277A31.953 31.953 0 0132 64c-8.547 0-16.583-3.328-22.627-9.373C3.329 48.583 0 40.547 0 32c0-8.547 3.329-16.583 9.373-22.628C15.417 3.328 23.453 0 32 0c8.547 0 16.583 3.328 22.627 9.372C60.671 15.417 64 23.452 64 32z"/></svg><svg viewBox="0 0 47 62" id="timelapse" xmlns="http://www.w3.org/2000/svg"><path fill="#fff" d="M21.004 40.526a3.82 3.82 0 014.993 0c.088.076 6.989 5.927 8.822 7.897l.06.065c1.22 1.318.285 3.46-1.507 3.46H13.628c-1.792 0-2.726-2.142-1.507-3.46l.06-.065c1.834-1.97 8.734-7.82 8.823-7.897zM32.056 31c0 .685.314 1.351.86 1.827.595.522 1.281 1.099 2.007 1.71 2.352 1.977 5.278 4.439 7.614 7.087a2.43 2.43 0 01-.205 3.42 2.403 2.403 0 01-3.403-.207c-2.097-2.378-4.755-4.614-7.1-6.586a150.81 150.81 0 01-2.078-1.77A7.292 7.292 0 0127.236 31c0-2.087.917-4.085 2.515-5.483a159.68 159.68 0 011.99-1.697c3.904-3.298 10.439-8.818 10.439-12.8V7.266a2.419 2.419 0 00-2.41-2.422H7.23a2.419 2.419 0 00-2.41 2.422v3.754c0 3.982 6.535 9.502 10.44 12.8.711.6 1.383 1.168 1.989 1.697A7.296 7.296 0 0119.764 31a7.292 7.292 0 01-2.515 5.482c-.606.53-1.278 1.097-1.99 1.698-3.904 3.298-10.439 8.818-10.439 12.8v3.754a2.419 2.419 0 002.41 2.422h32.54a2.419 2.419 0 002.41-2.422 2.416 2.416 0 012.41-2.421A2.416 2.416 0 0147 54.734C47 58.741 43.756 62 39.77 62H7.23C3.245 62 0 58.741 0 54.734v-3.753c0-6.239 7.027-12.174 12.158-16.508.695-.588 1.352-1.143 1.927-1.644.546-.478.859-1.144.859-1.829s-.314-1.351-.86-1.828a150.317 150.317 0 00-1.926-1.645C7.027 23.193 0 17.258 0 11.02V7.266C0 3.259 3.244 0 7.23 0h32.54C43.755 0 47 3.259 47 7.266v3.754c0 6.238-7.027 12.173-12.158 16.507-.695.588-1.352 1.143-1.927 1.644-.545.478-.859 1.144-.859 1.829zm-10.92-8.57c-.043-.037-1.725-1.49-3.641-3.193-1.502-1.334-.577-3.857 1.413-3.857h9.425c1.99 0 2.915 2.523 1.413 3.857a379.774 379.774 0 01-3.642 3.194 3.75 3.75 0 01-4.967 0z"/></svg><svg viewBox="0 0 512 512" id="twitter" xmlns="http://www.w3.org/2000/svg"><path d="M512 97.248c-19.04 8.352-39.328 13.888-60.48 16.576 21.76-12.992 38.368-33.408 46.176-58.016-20.288 12.096-42.688 20.64-66.56 25.408C411.872 60.704 384.416 48 354.464 48c-58.112 0-104.896 47.168-104.896 104.992 0 8.32.704 16.32 2.432 23.936-87.264-4.256-164.48-46.08-216.352-109.792-9.056 15.712-14.368 33.696-14.368 53.056 0 36.352 18.72 68.576 46.624 87.232-16.864-.32-33.408-5.216-47.424-12.928v1.152c0 51.008 36.384 93.376 84.096 103.136-8.544 2.336-17.856 3.456-27.52 3.456-6.72 0-13.504-.384-19.872-1.792 13.6 41.568 52.192 72.128 98.08 73.12-35.712 27.936-81.056 44.768-130.144 44.768-8.608 0-16.864-.384-25.12-1.44C46.496 446.88 101.6 464 161.024 464c193.152 0 298.752-160 298.752-298.688 0-4.64-.16-9.12-.384-13.568 20.832-14.784 38.336-33.248 52.608-54.496z"/></svg><svg viewBox="0 0 512 512" class="mhovered-paths" id="user" xmlns="http://www.w3.org/2000/svg"><path d="M437.02 330.98c-27.883-27.882-61.071-48.523-97.281-61.018C378.521 243.251 404 198.548 404 148 404 66.393 337.607 0 256 0S108 66.393 108 148c0 50.548 25.479 95.251 64.262 121.962-36.21 12.495-69.398 33.136-97.281 61.018C26.629 379.333 0 443.62 0 512h40c0-119.103 96.897-216 216-216s216 96.897 216 216h40c0-68.38-26.629-132.667-74.98-181.02zM256 256c-59.551 0-108-48.448-108-108S196.449 40 256 40s108 48.448 108 108-48.449 108-108 108z" data-original="#000000" class="mactive-path" data-old_color="#000000" fill="#FFF"/></svg><svg viewBox="-21 -117 682.667 682" id="youtube" xmlns="http://www.w3.org/2000/svg"><path d="M626.813 64.035c-7.375-27.418-28.993-49.031-56.407-56.414C520.324-6.082 319.992-6.082 319.992-6.082s-200.324 0-250.406 13.184c-26.887 7.375-49.031 29.52-56.406 56.933C0 114.113 0 217.97 0 217.97s0 104.379 13.18 153.933c7.382 27.414 28.992 49.028 56.41 56.41C120.195 442.02 320 442.02 320 442.02s200.324 0 250.406-13.184c27.418-7.379 49.032-28.992 56.414-56.406 13.176-50.082 13.176-153.934 13.176-153.934s.527-104.383-13.183-154.46zM256.21 313.915V122.022l166.586 95.946zm0 0"/></svg></svg>